<svg width="1184" height="219" viewBox="0 0 1184 219" fill="none" xmlns="http://www.w3.org/2000/svg">
<path d="M801.314 61.0457H842.907C855.995 61.0457 866.975 63.5412 875.849 68.5324C884.833 73.5235 891.543 80.4002 895.979 89.1624C900.416 97.9246 902.634 108.018 902.634 119.442C902.634 130.755 900.416 140.793 895.979 149.555C891.543 158.317 884.833 165.194 875.849 170.185C866.975 175.065 855.995 177.506 842.907 177.506H801.314V61.0457ZM840.079 156.543C853.167 156.543 862.816 153.215 869.027 146.56C875.349 139.795 878.51 130.755 878.51 119.442C878.51 108.129 875.349 99.0892 869.027 92.3235C862.816 85.4468 853.167 82.0084 840.079 82.0084H824.606V156.543H840.079Z" fill="url(#paint0_linear_55759_27367)"/>
<path d="M913.381 90.9925H935.175V107.463C936.728 101.141 939.723 96.3718 944.16 93.1553C948.707 89.9388 954.641 88.5524 961.961 88.996V110.125H958.8C952.145 110.125 946.655 112.233 942.329 116.447C938.004 120.551 935.841 126.152 935.841 133.251V177.506H913.381V90.9925Z" fill="url(#paint1_linear_55759_27367)"/>
<path d="M969.434 90.9925H991.894V177.506H969.434V90.9925ZM967.104 70.5288C967.104 66.8687 968.38 63.7631 970.931 61.212C973.593 58.661 976.809 57.3855 980.581 57.3855C984.463 57.3855 987.679 58.661 990.23 61.212C992.781 63.7631 994.057 66.8687 994.057 70.5288C994.057 74.2999 992.781 77.461 990.23 80.012C987.679 82.563 984.463 83.8385 980.581 83.8385C976.809 83.8385 973.593 82.563 970.931 80.012C968.38 77.35 967.104 74.189 967.104 70.5288Z" fill="url(#paint2_linear_55759_27367)"/>
<path d="M996.027 90.9925H1022.65L1039.95 140.405C1041.5 144.619 1042.72 149.222 1043.61 154.214C1044.5 149.222 1045.72 144.619 1047.27 140.405L1064.57 90.9925H1090.69L1054.76 177.506H1032.13L996.027 90.9925Z" fill="url(#paint3_linear_55759_27367)"/>
<path d="M1130.76 179.668C1122 179.668 1114.24 177.672 1107.47 173.679C1100.71 169.575 1095.44 164.085 1091.67 157.208C1087.9 150.332 1086.01 142.734 1086.01 134.415C1086.01 126.208 1087.95 118.61 1091.83 111.623C1095.72 104.635 1101.04 99.0892 1107.81 94.9854C1114.68 90.8816 1122.33 88.8297 1130.76 88.8297C1139.19 88.8297 1146.74 90.8816 1153.39 94.9854C1160.16 99.0892 1165.37 104.635 1169.03 111.623C1172.8 118.499 1174.69 126.097 1174.69 134.415C1174.69 137.188 1174.46 139.85 1174.02 142.401H1109.3C1110.63 147.614 1113.13 151.829 1116.79 155.045C1120.56 158.151 1125.22 159.704 1130.76 159.704C1135.42 159.704 1139.58 158.65 1143.24 156.543C1146.9 154.324 1149.79 151.496 1151.89 148.058L1169.36 161.201C1165.81 166.747 1160.6 171.239 1153.72 174.677C1146.85 178.005 1139.19 179.668 1130.76 179.668ZM1152.06 125.598C1150.73 120.607 1148.12 116.447 1144.24 113.12C1140.36 109.792 1135.76 108.129 1130.43 108.129C1125.22 108.129 1120.67 109.737 1116.79 112.953C1113.02 116.17 1110.52 120.385 1109.3 125.598H1152.06Z" fill="url(#paint4_linear_55759_27367)"/>
<path d="M266.086 78.8336H230.236V56.2479H327.032V78.8336H291.182V181.724H266.086V78.8336Z" fill="black"/>
<path d="M309.591 88.5132H337.913L349.923 141.392C351.237 146.77 352.193 151.49 352.791 155.553C353.628 150.415 354.643 145.635 355.838 141.213L369.461 88.5132H397.245L411.765 141.213C412.96 145.635 413.976 150.415 414.812 155.553C415.41 151.49 416.366 146.77 417.68 141.392L430.586 88.5132H456.936L427.897 181.724H401.727L386.49 128.666C385.056 124.363 383.981 119.703 383.264 114.684C382.427 120.181 381.471 124.841 380.396 128.666L366.414 181.724H338.63L309.591 88.5132Z" fill="black"/>
<path d="M500.214 184.054C491.849 184.054 484.141 181.903 477.091 177.601C470.04 173.18 464.424 167.264 460.241 159.855C456.178 152.446 454.147 144.32 454.147 135.477C454.147 126.634 456.178 118.508 460.241 111.099C464.424 103.57 470.04 97.5953 477.091 93.1737C484.141 88.7522 491.849 86.5414 500.214 86.5414C507.862 86.5414 514.017 87.9754 518.677 90.8435C523.457 93.7115 527.162 97.8343 529.791 103.212V88.5132H553.81V181.724H530.328V166.488C527.58 172.104 523.816 176.466 519.036 179.573C514.375 182.561 508.101 184.054 500.214 184.054ZM478.345 135.298C478.345 140.078 479.421 144.559 481.572 148.742C483.843 152.805 486.89 156.091 490.714 158.601C494.657 160.991 499.139 162.186 504.158 162.186C509.296 162.186 513.837 160.991 517.781 158.601C521.844 156.211 524.951 152.984 527.102 148.921C529.253 144.858 530.328 140.377 530.328 135.477C530.328 130.578 529.253 126.096 527.102 122.033C524.951 117.851 521.844 114.564 517.781 112.174C513.837 109.665 509.296 108.41 504.158 108.41C499.139 108.41 494.657 109.665 490.714 112.174C486.77 114.564 483.723 117.791 481.572 121.854C479.421 125.917 478.345 130.398 478.345 135.298Z" fill="black"/>
<path d="M592.387 137.449V181.724H568.188V50.8704H592.387V126.156L627.341 88.5132H661.758L617.841 131.892L661.937 181.724H629.851L592.387 137.449Z" fill="black"/>
<path d="M701.047 184.054C691.607 184.054 683.242 181.903 675.952 177.601C668.663 173.18 662.986 167.264 658.923 159.855C654.86 152.446 652.829 144.26 652.829 135.298C652.829 126.455 654.92 118.269 659.102 110.74C663.285 103.212 669.021 97.2368 676.311 92.8152C683.72 88.3937 691.965 86.1829 701.047 86.1829C710.129 86.1829 718.255 88.3937 725.426 92.8152C732.715 97.2368 738.332 103.212 742.275 110.74C746.338 118.149 748.37 126.335 748.37 135.298C748.37 138.285 748.131 141.153 747.653 143.902H677.924C679.358 149.518 682.047 154.06 685.99 157.525C690.053 160.871 695.072 162.544 701.047 162.544C706.066 162.544 710.548 161.409 714.491 159.138C718.435 156.748 721.542 153.701 723.812 149.996L742.634 164.157C738.81 170.132 733.193 174.972 725.784 178.677C718.375 182.262 710.129 184.054 701.047 184.054ZM723.992 125.798C722.558 120.42 719.749 115.939 715.567 112.354C711.384 108.769 706.425 106.976 700.689 106.976C695.072 106.976 690.173 108.709 685.99 112.174C681.927 115.64 679.238 120.181 677.924 125.798H723.992Z" fill="black"/>
<path d="M0.664124 84.0332C0.664124 48.7938 29.2313 20.2266 64.4707 20.2266H130.063C165.302 20.2266 193.869 48.7937 193.869 84.0331V149.625C193.869 184.865 165.302 213.432 130.063 213.432H64.4707C29.2313 213.432 0.664124 184.865 0.664124 149.625V84.0332Z" fill="white"/>
<path d="M0.664124 84.0332C0.664124 48.7938 29.2313 20.2266 64.4707 20.2266H130.063C165.302 20.2266 193.869 48.7937 193.869 84.0331V149.625C193.869 184.865 165.302 213.432 130.063 213.432H64.4707C29.2313 213.432 0.664124 184.865 0.664124 149.625V84.0332Z" fill="url(#paint5_linear_55759_27367)"/>
<path d="M0.664124 84.0332C0.664124 48.7938 29.2313 20.2266 64.4707 20.2266H130.063C165.302 20.2266 193.869 48.7937 193.869 84.0331V149.625C193.869 184.865 165.302 213.432 130.063 213.432H64.4707C29.2313 213.432 0.664124 184.865 0.664124 149.625V84.0332Z" fill="url(#paint6_linear_55759_27367)"/>
<path fill-rule="evenodd" clip-rule="evenodd" d="M96.6907 133.217C96.6907 132.629 96.6764 132.041 96.6477 131.454C96.6186 130.866 96.5756 130.28 96.5177 129.695C96.4599 129.109 96.3883 128.525 96.3018 127.944C96.2158 127.362 96.115 126.783 96.0004 126.206C95.8857 125.629 95.7567 125.056 95.6139 124.485C95.4711 123.914 95.314 123.348 95.1435 122.785C94.9725 122.222 94.7882 121.664 94.59 121.11C94.3919 120.556 94.1804 120.007 93.9551 119.464C93.7302 118.921 93.492 118.383 93.2405 117.851C92.989 117.32 92.7246 116.795 92.4474 116.276C92.1702 115.757 91.8801 115.246 91.5777 114.741C91.2753 114.236 90.961 113.74 90.6343 113.251C90.3072 112.761 89.9687 112.281 89.6184 111.809C89.268 111.336 88.9063 110.873 88.5332 110.418C88.1601 109.963 87.7761 109.518 87.3808 109.082C86.986 108.647 86.5808 108.221 86.1647 107.805C85.7486 107.389 85.3232 106.983 84.8873 106.588C84.4515 106.194 84.0062 105.809 83.5516 105.436C83.097 105.063 82.6335 104.701 82.1611 104.351C81.6887 104.001 81.2078 103.662 80.7186 103.335C80.2294 103.008 79.7328 102.694 79.2283 102.392C78.7237 102.089 78.2123 101.8 77.6934 101.522C77.175 101.245 76.6497 100.98 76.118 100.729C75.5863 100.478 75.0487 100.24 74.5056 100.014C73.962 99.7894 73.4135 99.5774 72.8596 99.3792C72.3056 99.1811 71.7477 98.9967 71.1849 98.8263C70.6221 98.6553 70.0553 98.4986 69.4845 98.3558C68.9142 98.2125 68.3405 98.084 67.7634 97.9689C67.1867 97.8543 66.6075 97.7539 66.0254 97.6675C65.4438 97.5815 64.8602 97.5093 64.2751 97.4515C63.6895 97.3942 63.103 97.3507 62.5159 97.3221C61.9284 97.2929 61.3403 97.2786 60.7523 97.2786C60.1642 97.2786 59.5764 97.2929 58.9889 97.3221C58.4015 97.3507 57.8151 97.3942 57.2297 97.4515C56.6444 97.5093 56.0608 97.5815 55.4791 97.6675C54.8972 97.7539 54.3179 97.8543 53.7411 97.9689C53.1642 98.084 52.5905 98.2125 52.02 98.3558C51.4494 98.4986 50.8827 98.6553 50.3199 98.8263C49.7571 98.9967 49.1988 99.1811 48.645 99.3792C48.0912 99.5774 47.5426 99.7894 46.9992 100.014C46.4558 100.24 45.9183 100.478 45.3866 100.729C44.8549 100.98 44.3297 101.245 43.811 101.522C43.2923 101.8 42.7807 102.089 42.2762 102.392C41.7717 102.694 41.275 103.008 40.786 103.335C40.2969 103.662 39.8162 104.001 39.3437 104.351C38.8713 104.701 38.4078 105.063 37.9531 105.436C37.4985 105.809 37.0533 106.194 36.6174 106.588C36.1817 106.983 35.7559 107.389 35.34 107.805C34.924 108.221 34.5186 108.647 34.1236 109.082C33.7286 109.518 33.3446 109.963 32.9715 110.418C32.5984 110.873 32.2366 111.336 31.8862 111.809C31.5358 112.281 31.1973 112.761 30.8705 113.251C30.5438 113.74 30.2292 114.236 29.9268 114.741C29.6244 115.246 29.3346 115.757 29.0573 116.276C28.7801 116.795 28.5157 117.32 28.2643 117.851C28.0128 118.383 27.7745 118.921 27.5494 119.464C27.3243 120.007 27.1127 120.556 26.9146 121.11C26.7165 121.664 26.532 122.222 26.3613 122.785C26.1905 123.348 26.0338 123.914 25.8908 124.485C25.7479 125.056 25.6191 125.629 25.5043 126.206C25.3896 126.783 25.2891 127.362 25.2028 127.944C25.1165 128.525 25.0445 129.109 24.9868 129.695C24.9292 130.28 24.8859 130.866 24.8571 131.454C24.8282 132.041 24.8138 132.629 24.8138 133.217C24.8138 133.805 24.8282 134.393 24.8571 134.981C24.8859 135.568 24.9292 136.154 24.9868 136.74C25.0445 137.325 25.1165 137.908 25.2028 138.491C25.2891 139.072 25.3896 139.651 25.5043 140.229C25.6191 140.805 25.7479 141.379 25.8908 141.95C26.0338 142.52 26.1905 143.087 26.3613 143.65C26.532 144.212 26.7165 144.771 26.9146 145.324C27.1127 145.878 27.3243 146.427 27.5494 146.97C27.7745 147.513 28.0128 148.051 28.2643 148.583C28.5157 149.114 28.7801 149.64 29.0573 150.159C29.3346 150.677 29.6244 151.189 29.9268 151.693C30.2292 152.197 30.5438 152.695 30.8705 153.183C31.1973 153.673 31.5358 154.153 31.8862 154.626C32.2366 155.098 32.5984 155.562 32.9715 156.016C33.3446 156.471 33.7286 156.916 34.1236 157.352C34.5186 157.788 34.924 158.214 35.34 158.629C35.7559 159.045 36.1817 159.451 36.6174 159.846C37.0533 160.241 37.4985 160.625 37.9531 160.998C38.4078 161.371 38.8713 161.733 39.3437 162.083C39.8162 162.433 40.2969 162.772 40.786 163.099C41.275 163.426 41.7717 163.74 42.2762 164.042C42.7807 164.345 43.2923 164.635 43.811 164.912C44.3297 165.189 44.8549 165.454 45.3866 165.705C45.9183 165.957 46.4558 166.195 46.9992 166.42C47.5426 166.645 48.0912 166.857 48.645 167.055C49.1988 167.253 49.7571 167.437 50.3199 167.608C50.8827 167.779 51.4494 167.936 52.02 168.079C52.5905 168.221 53.1642 168.35 53.7411 168.465C54.3179 168.58 54.8972 168.68 55.4791 168.766C56.0608 168.853 56.6444 168.925 57.2297 168.982C57.8151 169.04 58.4015 169.084 58.9889 169.112C59.5764 169.141 60.1642 169.156 60.7523 169.156H118.254V133.217H96.6907Z" fill="white"/>
<path d="M118.254 169.156C146.042 169.156 168.569 146.63 168.569 118.842C168.569 91.0541 146.042 68.5281 118.254 68.5281C90.4671 68.5281 67.9405 91.0541 67.9405 118.842C67.9405 146.63 90.4671 169.156 118.254 169.156Z" fill="white"/>
<defs>
<linearGradient id="paint0_linear_55759_27367" x1="842.105" y1="30.2115" x2="944.198" y2="273.868" gradientUnits="userSpaceOnUse">
<stop stop-color="#FF6372"/>
<stop offset="1" stop-color="#FF3347"/>
</linearGradient>
<linearGradient id="paint1_linear_55759_27367" x1="842.105" y1="30.2115" x2="944.198" y2="273.868" gradientUnits="userSpaceOnUse">
<stop stop-color="#FF6372"/>
<stop offset="1" stop-color="#FF3347"/>
</linearGradient>
<linearGradient id="paint2_linear_55759_27367" x1="842.105" y1="30.2115" x2="944.198" y2="273.868" gradientUnits="userSpaceOnUse">
<stop stop-color="#FF6372"/>
<stop offset="1" stop-color="#FF3347"/>
</linearGradient>
<linearGradient id="paint3_linear_55759_27367" x1="842.105" y1="30.2115" x2="944.198" y2="273.868" gradientUnits="userSpaceOnUse">
<stop stop-color="#FF6372"/>
<stop offset="1" stop-color="#FF3347"/>
</linearGradient>
<linearGradient id="paint4_linear_55759_27367" x1="842.105" y1="30.2115" x2="944.198" y2="273.868" gradientUnits="userSpaceOnUse">
<stop stop-color="#FF6372"/>
<stop offset="1" stop-color="#FF3347"/>
</linearGradient>
<linearGradient id="paint5_linear_55759_27367" x1="193.869" y1="132.93" x2="141.561" y2="99.5335" gradientUnits="userSpaceOnUse">
<stop offset="0.12998" stop-color="#A033FF"/>
<stop offset="0.610381" stop-color="#0094FF"/>
<stop offset="1" stop-color="#FF4759"/>
</linearGradient>
<linearGradient id="paint6_linear_55759_27367" x1="89.2165" y1="80.6032" x2="28.8399" y2="201.356" gradientUnits="userSpaceOnUse">
<stop stop-color="#FFD600" stop-opacity="0"/>
<stop offset="0.563347" stop-color="#FFC700"/>
</linearGradient>
</defs>
</svg>
