<svg width="98" height="98" viewBox="0 0 98 98" fill="none" xmlns="http://www.w3.org/2000/svg">
<mask id="mask0_1_3" style="mask-type:alpha" maskUnits="userSpaceOnUse" x="0" y="0" width="98" height="98">
<rect width="98" height="98" rx="33.0123" fill="white"/>
</mask>
<g mask="url(#mask0_1_3)">
<g filter="url(#filter0_f_1_3)">
<rect x="-55.1076" y="62.0473" width="165.672" height="128.781" transform="rotate(-45 -55.1076 62.0473)" fill="url(#paint0_angular_1_3)"/>
</g>
</g>
<path fill-rule="evenodd" clip-rule="evenodd" d="M50.3125 55.9998C50.3125 55.7135 50.3055 55.4274 50.2915 55.1413C50.2774 54.8552 50.2564 54.5695 50.2283 54.2846C50.2001 53.9995 50.1652 53.7153 50.1231 53.4321C50.0812 53.1489 50.0322 52.8666 49.9763 52.5858C49.9205 52.3048 49.8577 52.0256 49.7882 51.7477C49.7186 51.4698 49.6421 51.194 49.5591 50.92C49.4758 50.6459 49.3861 50.374 49.2896 50.1043C49.1931 49.8348 49.0901 49.5674 48.9804 49.303C48.8709 49.0383 48.7549 48.7765 48.6324 48.5176C48.51 48.2587 48.3812 48.0031 48.2462 47.7505C48.1112 47.4978 47.97 47.2488 47.8227 47.0031C47.6755 46.7574 47.5224 46.5156 47.3634 46.2773C47.2041 46.0391 47.0393 45.8052 46.8687 45.5752C46.698 45.3452 46.5219 45.1195 46.3402 44.8981C46.1586 44.6765 45.9716 44.4597 45.7791 44.2477C45.5868 44.0354 45.3895 43.828 45.1869 43.6254C44.9843 43.423 44.7771 43.2255 44.5649 43.0332C44.3527 42.841 44.1359 42.6538 43.9145 42.4721C43.6931 42.2904 43.4674 42.1143 43.2374 41.9437C43.0073 41.7731 42.7732 41.6083 42.535 41.4492C42.2968 41.2899 42.0549 41.1369 41.8093 40.9896C41.5636 40.8423 41.3145 40.7013 41.0619 40.5663C40.8095 40.4311 40.5537 40.3024 40.2948 40.1801C40.0359 40.0577 39.7741 39.9417 39.5096 39.832C39.2449 39.7225 38.9778 39.6192 38.7081 39.5228C38.4383 39.4263 38.1667 39.3365 37.8926 39.2535C37.6185 39.1702 37.3425 39.094 37.0646 39.0244C36.7869 38.9546 36.5076 38.8921 36.2265 38.836C35.9457 38.7802 35.6637 38.7313 35.3802 38.6892C35.097 38.6474 34.8128 38.6122 34.5279 38.5841C34.2428 38.5562 33.9572 38.535 33.6713 38.521C33.3852 38.5068 33.0989 38.4999 32.8125 38.4999C32.5262 38.4999 32.2399 38.5068 31.9538 38.521C31.6678 38.535 31.3823 38.5562 31.0972 38.5841C30.8122 38.6122 30.528 38.6474 30.2448 38.6892C29.9614 38.7313 29.6793 38.7802 29.3985 38.836C29.1175 38.8921 28.8382 38.9546 28.5604 39.0244C28.2825 39.094 28.0066 39.1702 27.7326 39.2535C27.4585 39.3365 27.1866 39.4263 26.917 39.5228C26.6473 39.6192 26.3801 39.7225 26.1155 39.832C25.851 39.9417 25.5892 40.0577 25.3303 40.1801C25.0714 40.3024 24.8157 40.4311 24.5631 40.5663C24.3105 40.7013 24.0614 40.8423 23.8157 40.9896C23.5701 41.1369 23.3282 41.2899 23.09 41.4492C22.8519 41.6083 22.6178 41.7731 22.3878 41.9437C22.1577 42.1143 21.932 42.2904 21.7106 42.4721C21.4892 42.6538 21.2724 42.841 21.0602 43.0332C20.848 43.2255 20.6407 43.423 20.4382 43.6254C20.2356 43.828 20.0382 44.0354 19.8459 44.2477C19.6535 44.4597 19.4665 44.6765 19.2848 44.8981C19.1031 45.1195 18.927 45.3452 18.7564 45.5752C18.5858 45.8052 18.4209 46.0391 18.2618 46.2773C18.1027 46.5156 17.9495 46.7574 17.8023 47.0031C17.655 47.2488 17.5139 47.4978 17.3789 47.7505C17.2439 48.0031 17.1151 48.2587 16.9927 48.5176C16.8702 48.7765 16.7542 49.0383 16.6446 49.303C16.535 49.5674 16.432 49.8348 16.3355 50.1043C16.239 50.374 16.1492 50.6459 16.066 50.92C15.9829 51.194 15.9066 51.4698 15.8369 51.7477C15.7674 52.0256 15.7046 52.3048 15.6487 52.5858C15.5929 52.8666 15.5439 53.1489 15.5019 53.4321C15.4599 53.7153 15.4248 53.9995 15.3968 54.2846C15.3687 54.5695 15.3476 54.8552 15.3336 55.1413C15.3195 55.4274 15.3125 55.7135 15.3125 55.9998C15.3125 56.2862 15.3195 56.5725 15.3336 56.8586C15.3476 57.1447 15.3687 57.4301 15.3968 57.7152C15.4248 58.0001 15.4599 58.2843 15.5019 58.5678C15.5439 58.851 15.5929 59.133 15.6487 59.4141C15.7046 59.6949 15.7674 59.9742 15.8369 60.2521C15.9066 60.5298 15.9829 60.8058 16.066 61.0799C16.1492 61.354 16.239 61.6259 16.3355 61.8954C16.432 62.1651 16.535 62.4322 16.6446 62.6969C16.7542 62.9614 16.8702 63.2232 16.9927 63.4821C17.1151 63.741 17.2439 63.9968 17.3789 64.2494C17.5139 64.5018 17.655 64.7511 17.8023 64.9966C17.9495 65.2422 18.1027 65.4843 18.2618 65.7223C18.4209 65.9605 18.5858 66.1946 18.7564 66.4247C18.927 66.6547 19.1031 66.8804 19.2848 67.1018C19.4665 67.3232 19.6535 67.54 19.8459 67.7522C20.0382 67.9644 20.2356 68.1719 20.4382 68.3742C20.6407 68.5768 20.848 68.7741 21.0602 68.9666C21.2724 69.1589 21.4892 69.3459 21.7106 69.5275C21.932 69.7092 22.1577 69.8854 22.3878 70.056C22.6178 70.2266 22.8519 70.3914 23.09 70.5507C23.3282 70.7097 23.5701 70.863 23.8157 71.01C24.0614 71.1573 24.3105 71.2985 24.5631 71.4335C24.8157 71.5685 25.0714 71.6973 25.3303 71.8197C25.5892 71.9422 25.851 72.0582 26.1155 72.1679C26.3801 72.2774 26.6473 72.3804 26.917 72.4769C27.1866 72.5734 27.4585 72.6631 27.7326 72.7464C28.0066 72.8294 28.2825 72.9059 28.5604 72.9755C28.8382 73.045 29.1175 73.1078 29.3985 73.1636C29.6793 73.2195 29.9614 73.2685 30.2448 73.3104C30.528 73.3525 30.8122 73.3877 31.0972 73.4156C31.3823 73.4437 31.6678 73.4649 31.9538 73.4788C32.2399 73.4928 32.5262 73.5 32.8125 73.5H60.8127V55.9998H50.3125Z" fill="white"/>
<path d="M60.8131 73.5C74.3442 73.5 85.3134 62.5311 85.3134 49C85.3134 35.4689 74.3442 24.5 60.8131 24.5C47.2823 24.5 36.3131 35.4689 36.3131 49C36.3131 62.5311 47.2823 73.5 60.8131 73.5Z" fill="white"/>
<defs>
<filter id="filter0_f_1_3" x="-80.9383" y="-80.9313" width="259.871" height="259.871" filterUnits="userSpaceOnUse" color-interpolation-filters="sRGB">
<feFlood flood-opacity="0" result="BackgroundImageFix"/>
<feBlend mode="normal" in="SourceGraphic" in2="BackgroundImageFix" result="shape"/>
<feGaussianBlur stdDeviation="12.9154" result="effect1_foregroundBlur_1_3"/>
</filter>
<radialGradient id="paint0_angular_1_3" cx="0" cy="0" r="1" gradientUnits="userSpaceOnUse" gradientTransform="translate(27.7284 126.438) rotate(90) scale(64.3903 82.836)">
<stop offset="0.0625" stop-color="#EA4335"/>
<stop offset="0.197917" stop-color="#FFC700"/>
<stop offset="0.348958" stop-color="#FFD600"/>
<stop offset="0.468937" stop-color="#4FB500"/>
<stop offset="0.516943" stop-color="#00B066"/>
<stop offset="0.583333" stop-color="#0094FF"/>
<stop offset="0.786458" stop-color="#A033FF"/>
<stop offset="1" stop-color="#FF3B30"/>
</radialGradient>
</defs>
</svg>
