<svg width="1186" height="219" viewBox="0 0 1186 219" fill="none" xmlns="http://www.w3.org/2000/svg">
<path d="M802.812 61.1603H844.483C857.595 61.1603 868.596 63.6606 877.486 68.6611C886.487 73.6616 893.21 80.5512 897.655 89.3299C902.1 98.1085 904.322 108.221 904.322 119.666C904.322 131.001 902.1 141.057 897.655 149.836C893.21 158.615 886.487 165.504 877.486 170.505C868.596 175.394 857.595 177.839 844.483 177.839H802.812V61.1603ZM841.649 156.837C854.762 156.837 864.429 153.503 870.652 146.836C876.986 140.057 880.153 131.001 880.153 119.666C880.153 108.332 876.986 99.2753 870.652 92.4969C864.429 85.6073 854.762 82.1625 841.649 82.1625H826.148V156.837H841.649Z" fill="url(#paint0_linear_56372_2846)"/>
<path d="M915.089 91.1634H936.925V107.665C938.48 101.331 941.481 96.5528 945.926 93.3303C950.482 90.1077 956.427 88.7187 963.761 89.1632V110.332H960.594C953.926 110.332 948.426 112.443 944.092 116.666C939.758 120.778 937.591 126.389 937.591 133.501V177.839H915.089V91.1634Z" fill="url(#paint1_linear_56372_2846)"/>
<path d="M971.247 91.1634H993.749V177.839H971.247V91.1634ZM968.914 70.6613C968.914 66.9943 970.191 63.8828 972.747 61.327C975.414 58.7712 978.637 57.4933 982.415 57.4933C986.304 57.4933 989.527 58.7712 992.083 61.327C994.638 63.8828 995.916 66.9943 995.916 70.6613C995.916 74.4395 994.638 77.6065 992.083 80.1623C989.527 82.7181 986.304 83.996 982.415 83.996C978.637 83.996 975.414 82.7181 972.747 80.1623C970.191 77.4953 968.914 74.3283 968.914 70.6613Z" fill="url(#paint2_linear_56372_2846)"/>
<path d="M997.89 91.1634H1024.56L1041.89 140.668C1043.45 144.891 1044.67 149.503 1045.56 154.503C1046.45 149.503 1047.67 144.891 1049.23 140.668L1066.56 91.1634H1092.73L1056.73 177.839H1034.06L997.89 91.1634Z" fill="url(#paint3_linear_56372_2846)"/>
<path d="M1132.88 180.006C1124.1 180.006 1116.32 178.006 1109.55 174.005C1102.77 169.894 1097.49 164.393 1093.71 157.503C1089.93 150.614 1088.04 143.002 1088.04 134.668C1088.04 126.445 1089.99 118.833 1093.88 111.832C1097.77 104.831 1103.1 99.2753 1109.88 95.1638C1116.77 91.0523 1124.44 88.9965 1132.88 88.9965C1141.33 88.9965 1148.88 91.0523 1155.55 95.1638C1162.33 99.2753 1167.55 104.831 1171.22 111.832C1175 118.722 1176.89 126.334 1176.89 134.668C1176.89 137.446 1176.66 140.113 1176.22 142.669H1111.38C1112.71 147.891 1115.21 152.114 1118.88 155.337C1122.66 158.448 1127.32 160.004 1132.88 160.004C1137.55 160.004 1141.72 158.948 1145.38 156.837C1149.05 154.614 1151.94 151.781 1154.05 148.336L1171.55 161.504C1168 167.06 1162.77 171.56 1155.88 175.005C1148.99 178.339 1141.33 180.006 1132.88 180.006ZM1154.22 125.834C1152.88 120.833 1150.27 116.666 1146.38 113.332C1142.49 109.999 1137.88 108.332 1132.55 108.332C1127.32 108.332 1122.77 109.943 1118.88 113.166C1115.1 116.388 1112.6 120.611 1111.38 125.834H1154.22Z" fill="url(#paint4_linear_56372_2846)"/>
<path d="M266.579 78.9816H230.662V56.3535H327.639V78.9816H291.722V182.065H266.579V78.9816Z" fill="white"/>
<path d="M310.166 88.6794H338.541L350.573 141.658C351.89 147.046 352.848 151.775 353.447 155.845C354.285 150.697 355.302 145.908 356.5 141.478L370.148 88.6794H397.985L412.531 141.478C413.728 145.908 414.746 150.697 415.584 155.845C416.183 151.775 417.141 147.046 418.458 141.658L431.388 88.6794H457.787L428.694 182.065H402.474L387.209 128.907C385.773 124.597 384.695 119.928 383.977 114.899C383.139 120.407 382.181 125.076 381.103 128.907L367.095 182.065H339.259L310.166 88.6794Z" fill="white"/>
<path d="M501.147 184.4C492.766 184.4 485.044 182.245 477.98 177.935C470.916 173.505 465.289 167.578 461.099 160.156C457.028 152.733 454.993 144.591 454.993 135.732C454.993 126.872 457.028 118.73 461.099 111.308C465.289 103.765 470.916 97.7785 477.98 93.3487C485.044 88.9189 492.766 86.7039 501.147 86.7039C508.809 86.7039 514.975 88.1406 519.644 91.014C524.433 93.8875 528.145 98.018 530.779 103.406V88.6794H554.844V182.065H531.318V166.8C528.564 172.427 524.792 176.797 520.003 179.91C515.334 182.903 509.049 184.4 501.147 184.4ZM479.237 135.552C479.237 140.341 480.314 144.831 482.47 149.021C484.744 153.092 487.797 156.384 491.629 158.898C495.579 161.293 500.069 162.49 505.098 162.49C510.246 162.49 514.795 161.293 518.746 158.898C522.817 156.504 525.93 153.271 528.085 149.201C530.24 145.13 531.318 140.64 531.318 135.732C531.318 130.823 530.24 126.333 528.085 122.262C525.93 118.072 522.817 114.78 518.746 112.385C514.795 109.871 510.246 108.614 505.098 108.614C500.069 108.614 495.579 109.871 491.629 112.385C487.678 114.78 484.625 118.012 482.47 122.083C480.314 126.153 479.237 130.643 479.237 135.552Z" fill="white"/>
<path d="M593.493 137.707V182.065H569.249V50.9659H593.493V126.393L628.513 88.6794H662.994L618.994 132.14L663.173 182.065H631.027L593.493 137.707Z" fill="white"/>
<path d="M702.357 184.4C692.899 184.4 684.518 182.245 677.215 177.935C669.911 173.505 664.224 167.578 660.154 160.156C656.083 152.733 654.048 144.531 654.048 135.552C654.048 126.692 656.143 118.491 660.333 110.948C664.524 103.406 670.271 97.4194 677.574 92.9895C684.997 88.5597 693.258 86.3448 702.357 86.3448C711.456 86.3448 719.597 88.5597 726.781 92.9895C734.084 97.4194 739.711 103.406 743.662 110.948C747.733 118.371 749.768 126.573 749.768 135.552C749.768 138.545 749.529 141.418 749.05 144.172H679.19C680.627 149.799 683.321 154.349 687.272 157.821C691.342 161.173 696.371 162.849 702.357 162.849C707.386 162.849 711.875 161.712 715.826 159.437C719.777 157.043 722.89 153.99 725.165 150.278L744.021 164.466C740.19 170.452 734.563 175.301 727.14 179.012C719.717 182.604 711.456 184.4 702.357 184.4ZM725.344 126.034C723.908 120.646 721.094 116.156 716.904 112.565C712.713 108.973 707.745 107.177 701.998 107.177C696.371 107.177 691.462 108.913 687.272 112.385C683.201 115.857 680.507 120.407 679.19 126.034H725.344Z" fill="white"/>
<path d="M0.657715 84.191C0.657715 48.8855 29.2785 20.2646 64.5841 20.2646H130.299C165.605 20.2646 194.226 48.8854 194.226 84.191V149.906C194.226 185.212 165.605 213.833 130.299 213.833H64.5842C29.2786 213.833 0.657715 185.212 0.657715 149.906V84.191Z" fill="white"/>
<path d="M0.657715 84.191C0.657715 48.8855 29.2785 20.2646 64.5841 20.2646H130.299C165.605 20.2646 194.226 48.8854 194.226 84.191V149.906C194.226 185.212 165.605 213.833 130.299 213.833H64.5842C29.2786 213.833 0.657715 185.212 0.657715 149.906V84.191Z" fill="url(#paint5_linear_56372_2846)"/>
<path d="M0.657715 84.191C0.657715 48.8855 29.2785 20.2646 64.5841 20.2646H130.299C165.605 20.2646 194.226 48.8854 194.226 84.191V149.906C194.226 185.212 165.605 213.833 130.299 213.833H64.5842C29.2786 213.833 0.657715 185.212 0.657715 149.906V84.191Z" fill="url(#paint6_linear_56372_2846)"/>
<path fill-rule="evenodd" clip-rule="evenodd" d="M96.8679 133.467C96.8679 132.878 96.8535 132.289 96.8248 131.701C96.7956 131.112 96.7525 130.524 96.6946 129.938C96.6367 129.352 96.5649 128.767 96.4782 128.184C96.3921 127.601 96.2911 127.021 96.1762 126.443C96.0614 125.865 95.9322 125.29 95.7891 124.719C95.646 124.147 95.4886 123.579 95.3178 123.015C95.1465 122.452 94.9618 121.892 94.7633 121.337C94.5647 120.783 94.3528 120.233 94.1271 119.688C93.9018 119.144 93.6632 118.605 93.4112 118.073C93.1592 117.54 92.8943 117.014 92.6166 116.494C92.3388 115.974 92.0482 115.462 91.7452 114.956C91.4423 114.451 91.1274 113.953 90.8001 113.463C90.4724 112.973 90.1332 112.492 89.7822 112.019C89.4312 111.545 89.0688 111.081 88.695 110.626C88.3212 110.17 87.9366 109.723 87.5405 109.287C87.1449 108.851 86.739 108.424 86.3221 108.007C85.9052 107.591 85.479 107.184 85.0423 106.789C84.6056 106.393 84.1596 106.008 83.7041 105.634C83.2486 105.26 82.7842 104.898 82.3109 104.547C81.8376 104.196 81.3559 103.857 80.8658 103.529C80.3757 103.202 79.8781 102.887 79.3726 102.584C78.8671 102.281 78.3547 101.991 77.8349 101.713C77.3156 101.435 76.7893 101.17 76.2566 100.918C75.7239 100.666 75.1852 100.428 74.6411 100.202C74.0965 99.9768 73.547 99.7644 72.992 99.5658C72.437 99.3673 71.8781 99.1826 71.3142 99.0118C70.7503 98.8405 70.1824 98.6836 69.6106 98.5405C69.0393 98.397 68.4645 98.2682 67.8862 98.1529C67.3084 98.038 66.7282 97.9375 66.145 97.8509C65.5623 97.7647 64.9776 97.6924 64.3914 97.6345C63.8047 97.5771 63.2171 97.5335 62.6289 97.5048C62.0403 97.4756 61.4511 97.4612 60.862 97.4612C60.2728 97.4612 59.6838 97.4756 59.0953 97.5048C58.5067 97.5335 57.9192 97.5771 57.3328 97.6345C56.7463 97.6924 56.1617 97.7647 55.5788 97.8509C54.9959 97.9375 54.4155 98.038 53.8376 98.1529C53.2596 98.2682 52.6848 98.397 52.1132 98.5405C51.5416 98.6836 50.9739 98.8405 50.41 99.0118C49.8461 99.1826 49.2868 99.3673 48.7319 99.5658C48.1771 99.7644 47.6274 99.9768 47.0831 100.202C46.5387 100.428 46.0001 100.666 45.4674 100.918C44.9347 101.17 44.4086 101.435 43.8889 101.713C43.3692 101.991 42.8566 102.281 42.3512 102.584C41.8458 102.887 41.3481 103.202 40.8581 103.529C40.3681 103.857 39.8865 104.196 39.4132 104.547C38.9399 104.898 38.4755 105.26 38.02 105.634C37.5645 106.008 37.1184 106.393 36.6818 106.789C36.2452 107.184 35.8186 107.591 35.4019 108.007C34.9852 108.424 34.579 108.851 34.1833 109.287C33.7876 109.723 33.4028 110.17 33.029 110.626C32.6551 111.081 32.2927 111.545 31.9417 112.019C31.5906 112.492 31.2514 112.973 30.9241 113.463C30.5967 113.953 30.2815 114.451 29.9786 114.956C29.6756 115.462 29.3853 115.974 29.1075 116.494C28.8297 117.014 28.5649 117.54 28.3129 118.073C28.061 118.605 27.8222 119.144 27.5967 119.688C27.3712 120.233 27.1592 120.783 26.9607 121.337C26.7622 121.892 26.5774 122.452 26.4064 123.015C26.2353 123.579 26.0782 124.147 25.935 124.719C25.7918 125.29 25.6627 125.865 25.5478 126.443C25.4328 127.021 25.3321 127.601 25.2457 128.184C25.1592 128.767 25.0871 129.352 25.0293 129.938C24.9716 130.524 24.9282 131.112 24.8993 131.701C24.8704 132.289 24.856 132.878 24.856 133.467C24.856 134.056 24.8704 134.645 24.8993 135.234C24.9282 135.823 24.9716 136.41 25.0293 136.997C25.0871 137.583 25.1592 138.167 25.2457 138.751C25.3321 139.333 25.4328 139.914 25.5478 140.492C25.6627 141.07 25.7918 141.644 25.935 142.216C26.0782 142.788 26.2353 143.355 26.4064 143.919C26.5774 144.483 26.7622 145.043 26.9607 145.597C27.1592 146.152 27.3712 146.702 27.5967 147.246C27.8222 147.79 28.061 148.329 28.3129 148.862C28.5649 149.394 28.8297 149.921 29.1075 150.441C29.3853 150.96 29.6756 151.473 29.9786 151.978C30.2815 152.483 30.5967 152.981 30.9241 153.471C31.2514 153.961 31.5906 154.443 31.9417 154.916C32.2927 155.389 32.6551 155.854 33.029 156.309C33.4028 156.765 33.7876 157.211 34.1833 157.647C34.579 158.084 34.9852 158.511 35.4019 158.927C35.8186 159.344 36.2452 159.75 36.6818 160.146C37.1184 160.542 37.5645 160.926 38.02 161.3C38.4755 161.674 38.9399 162.036 39.4132 162.387C39.8865 162.738 40.3681 163.078 40.8581 163.405C41.3481 163.733 41.8458 164.048 42.3512 164.35C42.8566 164.653 43.3692 164.944 43.8889 165.222C44.4086 165.5 44.9347 165.764 45.4674 166.016C46.0001 166.268 46.5387 166.507 47.0831 166.733C47.6274 166.958 48.1771 167.17 48.7319 167.368C49.2868 167.567 49.8461 167.752 50.41 167.923C50.9739 168.094 51.5416 168.251 52.1132 168.394C52.6848 168.537 53.2596 168.667 53.8376 168.781C54.4155 168.896 54.9959 168.997 55.5788 169.083C56.1617 169.17 56.7463 169.242 57.3328 169.3C57.9192 169.358 58.5067 169.401 59.0953 169.43C59.6838 169.459 60.2728 169.474 60.862 169.474H118.472V133.467H96.8679Z" fill="white"/>
<path d="M118.474 169.474C146.314 169.474 168.883 146.905 168.883 119.065C168.883 91.2252 146.314 68.6568 118.474 68.6568C90.6343 68.6568 68.0654 91.2252 68.0654 119.065C68.0654 146.905 90.6343 169.474 118.474 169.474Z" fill="white"/>
<defs>
<linearGradient id="paint0_linear_56372_2846" x1="843.679" y1="30.2683" x2="945.965" y2="274.383" gradientUnits="userSpaceOnUse">
<stop stop-color="#FF6372"/>
<stop offset="1" stop-color="#FF3347"/>
</linearGradient>
<linearGradient id="paint1_linear_56372_2846" x1="843.679" y1="30.2683" x2="945.965" y2="274.383" gradientUnits="userSpaceOnUse">
<stop stop-color="#FF6372"/>
<stop offset="1" stop-color="#FF3347"/>
</linearGradient>
<linearGradient id="paint2_linear_56372_2846" x1="843.679" y1="30.2683" x2="945.965" y2="274.383" gradientUnits="userSpaceOnUse">
<stop stop-color="#FF6372"/>
<stop offset="1" stop-color="#FF3347"/>
</linearGradient>
<linearGradient id="paint3_linear_56372_2846" x1="843.679" y1="30.2683" x2="945.965" y2="274.383" gradientUnits="userSpaceOnUse">
<stop stop-color="#FF6372"/>
<stop offset="1" stop-color="#FF3347"/>
</linearGradient>
<linearGradient id="paint4_linear_56372_2846" x1="843.679" y1="30.2683" x2="945.965" y2="274.383" gradientUnits="userSpaceOnUse">
<stop stop-color="#FF6372"/>
<stop offset="1" stop-color="#FF3347"/>
</linearGradient>
<linearGradient id="paint5_linear_56372_2846" x1="194.226" y1="133.179" x2="141.819" y2="99.7205" gradientUnits="userSpaceOnUse">
<stop offset="0.12998" stop-color="#A033FF"/>
<stop offset="0.610381" stop-color="#0094FF"/>
<stop offset="1" stop-color="#FF4759"/>
</linearGradient>
<linearGradient id="paint6_linear_56372_2846" x1="89.3764" y1="80.7546" x2="28.8864" y2="201.735" gradientUnits="userSpaceOnUse">
<stop stop-color="#FFD600" stop-opacity="0"/>
<stop offset="0.563347" stop-color="#FFC700"/>
</linearGradient>
</defs>
</svg>
