<svg width="203" height="203" viewBox="0 0 203 203" fill="none" xmlns="http://www.w3.org/2000/svg">
<rect width="202.032" height="202.032" rx="66.7216" fill="white"/>
<rect width="202.032" height="202.032" rx="66.7216" fill="url(#paint0_linear_55782_2838)"/>
<rect width="202.032" height="202.032" rx="66.7216" fill="url(#paint1_linear_55782_2838)"/>
<rect width="202.032" height="202.032" rx="66.7216" fill="url(#paint2_linear_55782_2838)"/>
<path fill-rule="evenodd" clip-rule="evenodd" d="M68.7986 39.5345C67.6115 38.8996 66.2064 38.5615 64.3244 38.5615H63.7285C61.8464 38.5615 60.4414 38.8996 59.2542 39.5345C58.0671 40.1694 57.1354 41.1011 56.5005 42.2883C55.8656 43.4754 55.5275 44.8805 55.5275 46.7625L55.5336 49.5181C52.751 50.1618 50.6692 51.0493 48.58 52.1666C43.8314 54.7062 40.1047 58.4329 37.5651 63.1816C35.0255 67.9302 33.6731 72.6403 33.6731 85.6294V127.477C33.6731 140.466 35.0255 145.176 37.5651 149.925C40.1047 154.673 43.8314 158.4 48.58 160.939C53.3286 163.479 58.0388 164.831 71.0279 164.831H132.301C145.29 164.831 150.001 163.479 154.749 160.939C159.498 158.4 163.224 154.673 165.764 149.925C168.304 145.176 169.656 140.466 169.656 127.477V85.6294C169.656 72.6403 168.304 67.9302 165.764 63.1816C163.224 58.4329 159.498 54.7062 154.749 52.1666C152.662 51.0505 150.583 50.1638 147.805 49.5203L147.802 46.7625C147.802 44.8805 147.464 43.4754 146.829 42.2883C146.194 41.1011 145.262 40.1694 144.075 39.5345C142.888 38.8996 141.483 38.5615 139.601 38.5615H139.005C137.123 38.5615 135.718 38.8996 134.531 39.5345C133.343 40.1694 132.412 41.1011 131.777 42.2883C131.142 43.4754 130.804 44.8805 130.804 46.7625V48.2746L72.5254 48.2649V46.7625C72.5254 44.8805 72.1872 43.4754 71.5524 42.2883C70.9175 41.1011 69.9858 40.1694 68.7986 39.5345ZM58.7645 84.6986H144.565C147.379 84.6986 148.4 84.9916 149.428 85.5419C150.457 86.0921 151.265 86.8996 151.815 87.9285C152.365 88.9573 152.658 89.9779 152.658 92.7922V136.639L152.593 137.856C151.986 143.453 147.244 147.809 141.464 147.809L64.9632 147.641L63.4187 147.619C59.5897 147.509 57.9862 147.001 56.3714 146.135C54.5547 145.16 53.1296 143.731 52.1587 141.913C51.1877 140.094 50.6709 138.29 50.6709 133.318V92.7922L50.6888 91.6906C50.7599 89.6861 51.0426 88.8103 51.5142 87.9285C52.0645 86.8996 52.8719 86.0921 53.9008 85.5419C54.9296 84.9916 55.9502 84.6986 58.7645 84.6986ZM131.178 96.84H125.573C122.326 96.84 121.148 97.1781 119.961 97.813C118.774 98.4479 117.842 99.3796 117.207 100.567C116.572 101.754 116.234 102.931 116.234 106.179V111.784C116.234 115.031 116.572 116.209 117.207 117.396C117.842 118.583 118.774 119.515 119.961 120.15C121.148 120.785 122.326 121.123 125.573 121.123H131.178C134.425 121.123 135.603 120.785 136.79 120.15C137.977 119.515 138.909 118.583 139.544 117.396C140.179 116.209 140.517 115.031 140.517 111.784V106.179C140.517 102.931 140.179 101.754 139.544 100.567C138.909 99.3796 137.977 98.4479 136.79 97.813C135.603 97.1781 134.425 96.84 131.178 96.84Z" fill="white"/>
<defs>
<linearGradient id="paint0_linear_55782_2838" x1="202.032" y1="117.852" x2="147.333" y2="82.9301" gradientUnits="userSpaceOnUse">
<stop offset="0.12998" stop-color="#A033FF"/>
<stop offset="0.610381" stop-color="#0094FF"/>
<stop offset="1" stop-color="#F47734"/>
</linearGradient>
<linearGradient id="paint1_linear_55782_2838" x1="92.598" y1="63.135" x2="29.463" y2="189.405" gradientUnits="userSpaceOnUse">
<stop stop-color="#FFD600" stop-opacity="0"/>
<stop offset="0.563347" stop-color="#FFC700"/>
</linearGradient>
<linearGradient id="paint2_linear_55782_2838" x1="109.434" y1="117.852" x2="180.987" y2="193.614" gradientUnits="userSpaceOnUse">
<stop offset="0.0297327" stop-color="#FF3B30" stop-opacity="0"/>
<stop offset="0.842824" stop-color="#E73B2D"/>
</linearGradient>
</defs>
</svg>
