<svg width="203" height="203" viewBox="0 0 203 203" fill="none" xmlns="http://www.w3.org/2000/svg">
<rect width="202.032" height="202.032" rx="66.7216" fill="white"/>
<rect width="202.032" height="202.032" rx="66.7216" fill="url(#paint0_linear_55782_2842)"/>
<rect width="202.032" height="202.032" rx="66.7216" fill="url(#paint1_linear_55782_2842)"/>
<rect width="202.032" height="202.032" rx="66.7216" fill="url(#paint2_linear_55782_2842)"/>
<rect width="202.032" height="202.032" rx="66.7216" fill="url(#paint3_linear_55782_2842)" fill-opacity="0.2"/>
<path fill-rule="evenodd" clip-rule="evenodd" d="M42.0036 54.0458C39 59.9399 39 67.6564 39 83.0889V118.911C39 134.344 39 142.06 42.0036 147.954C44.6452 153.139 48.8607 157.355 54.0458 159.996C59.9399 163 67.6564 163 83.0889 163H118.911C134.344 163 142.06 163 147.954 159.996C153.139 157.355 157.355 153.139 159.996 147.954C163 142.06 163 134.344 163 118.911V83.0889C163 67.6564 163 59.9399 159.996 54.0458C157.355 48.8607 153.139 44.6452 147.954 42.0036C142.06 39 134.344 39 118.911 39H83.0889C67.6564 39 59.9399 39 54.0458 42.0036C48.8607 44.6452 44.6452 48.8607 42.0036 54.0458ZM101 66.5556C110.515 66.5556 118.222 74.2624 118.222 83.7778C118.222 93.2932 110.515 101 101 101C91.4846 101 83.7778 93.2932 83.7778 83.7778C83.7778 74.2624 91.4846 66.5556 101 66.5556ZM66.5556 131.117V126.966C66.5556 112.128 89.5043 107.889 101 107.889C112.496 107.889 135.444 112.128 135.444 126.966V131.117C135.444 133.507 133.507 135.444 131.117 135.444H70.8827C68.4927 135.444 66.5556 133.507 66.5556 131.117Z" fill="white"/>
<defs>
<linearGradient id="paint0_linear_55782_2842" x1="202.032" y1="117.852" x2="147.333" y2="82.9301" gradientUnits="userSpaceOnUse">
<stop offset="0.12998" stop-color="#A033FF"/>
<stop offset="0.610381" stop-color="#0094FF"/>
<stop offset="1" stop-color="#FF008A"/>
</linearGradient>
<linearGradient id="paint1_linear_55782_2842" x1="92.598" y1="63.135" x2="29.463" y2="189.405" gradientUnits="userSpaceOnUse">
<stop stop-color="#FFD600" stop-opacity="0"/>
<stop offset="0.563347" stop-color="#FFC700"/>
</linearGradient>
<linearGradient id="paint2_linear_55782_2842" x1="109.434" y1="117.852" x2="180.987" y2="193.614" gradientUnits="userSpaceOnUse">
<stop offset="0.0297327" stop-color="#FF3B30" stop-opacity="0"/>
<stop offset="0.842824" stop-color="#E73B2D"/>
</linearGradient>
<linearGradient id="paint3_linear_55782_2842" x1="101.016" y1="0" x2="101.016" y2="202.032" gradientUnits="userSpaceOnUse">
<stop stop-color="white"/>
<stop offset="1" stop-opacity="0"/>
</linearGradient>
</defs>
</svg>
