<svg width="194" height="194" viewBox="0 0 194 194" fill="none" xmlns="http://www.w3.org/2000/svg">
<path d="M0.00109863 63.8066C0.00109863 28.5672 28.5683 0 63.8076 0H129.4C164.639 0 193.206 28.5672 193.206 63.8066V129.399C193.206 164.638 164.639 193.205 129.4 193.205H63.8077C28.5683 193.205 0.00109863 164.638 0.00109863 129.399V63.8066Z" fill="white"/>
<path d="M0.00109863 63.8066C0.00109863 28.5672 28.5683 0 63.8076 0H129.4C164.639 0 193.206 28.5672 193.206 63.8066V129.399C193.206 164.638 164.639 193.205 129.4 193.205H63.8077C28.5683 193.205 0.00109863 164.638 0.00109863 129.399V63.8066Z" fill="url(#paint0_linear_55782_2820)"/>
<path d="M0.00109863 63.8066C0.00109863 28.5672 28.5683 0 63.8076 0H129.4C164.639 0 193.206 28.5672 193.206 63.8066V129.399C193.206 164.638 164.639 193.205 129.4 193.205H63.8077C28.5683 193.205 0.00109863 164.638 0.00109863 129.399V63.8066Z" fill="url(#paint1_linear_55782_2820)"/>
<path fill-rule="evenodd" clip-rule="evenodd" d="M96.0277 112.99C96.0277 112.402 96.0133 111.815 95.9847 111.227C95.9555 110.64 95.9125 110.053 95.8547 109.468C95.7969 108.882 95.7253 108.299 95.6388 107.717C95.5528 107.136 95.452 106.556 95.3373 105.979C95.2227 105.402 95.0937 104.829 94.9509 104.258C94.8081 103.687 94.651 103.121 94.4805 102.558C94.3095 101.995 94.1252 101.437 93.927 100.883C93.7289 100.33 93.5174 99.7807 93.292 99.2376C93.0672 98.694 92.829 98.1564 92.5775 97.6247C92.326 97.093 92.0616 96.5682 91.7844 96.0493C91.5071 95.5304 91.2171 95.019 90.9147 94.5144C90.6122 94.0099 90.2979 93.5133 89.9713 93.0241C89.6442 92.5349 89.3057 92.0545 88.9553 91.5821C88.605 91.1097 88.2433 90.6462 87.8702 90.1916C87.4971 89.7365 87.1131 89.2912 86.7178 88.8559C86.323 88.42 85.9178 87.9941 85.5017 87.578C85.0856 87.1624 84.6601 86.7567 84.2243 86.3619C83.7884 85.9671 83.3432 85.5826 82.8886 85.2095C82.434 84.8364 81.9705 84.4747 81.498 84.1243C81.0256 83.774 80.5448 83.4355 80.0556 83.1089C79.5664 82.7817 79.0698 82.4674 78.5652 82.165C78.0607 81.8626 77.5492 81.573 77.0304 81.2958C76.512 81.0181 75.9867 80.7537 75.455 80.5027C74.9233 80.2512 74.3857 80.013 73.8426 79.7876C73.299 79.5628 72.7505 79.3508 72.1966 79.1527C71.6426 78.9545 71.0847 78.7702 70.5219 78.5997C69.959 78.4287 69.3922 78.2721 68.8215 78.1293C68.2512 77.986 67.6775 77.8575 67.1003 77.7423C66.5237 77.6277 65.9445 77.5274 65.3624 77.4409C64.7808 77.3549 64.1972 77.2828 63.6121 77.225C63.0265 77.1676 62.44 77.1242 61.8529 77.0955C61.2654 77.0663 60.6773 77.052 60.0893 77.052C59.5012 77.052 58.9133 77.0663 58.3259 77.0955C57.7384 77.1242 57.1521 77.1676 56.5667 77.225C55.9814 77.2828 55.3978 77.3549 54.816 77.4409C54.2342 77.5274 53.6549 77.6277 53.078 77.7423C52.5012 77.8575 51.9275 77.986 51.357 78.1293C50.7864 78.2721 50.2197 78.4287 49.6569 78.5997C49.0941 78.7702 48.5358 78.9545 47.982 79.1527C47.4282 79.3508 46.8796 79.5628 46.3362 79.7876C45.7928 80.013 45.2553 80.2512 44.7236 80.5027C44.1919 80.7537 43.6667 81.0181 43.148 81.2958C42.6293 81.573 42.1177 81.8626 41.6132 82.165C41.1087 82.4674 40.6119 82.7817 40.1229 83.1089C39.6339 83.4355 39.1532 83.774 38.6807 84.1243C38.2083 84.4747 37.7448 84.8364 37.2901 85.2095C36.8355 85.5826 36.3902 85.9671 35.9544 86.3619C35.5186 86.7567 35.0928 87.1624 34.677 87.578C34.261 87.9941 33.8556 88.42 33.4606 88.8559C33.0656 89.2912 32.6816 89.7365 32.3085 90.1916C31.9353 90.6462 31.5736 91.1097 31.2232 91.5821C30.8728 92.0545 30.5343 92.5349 30.2075 93.0241C29.8807 93.5133 29.5662 94.0099 29.2638 94.5144C28.9614 95.019 28.6716 95.5304 28.3943 96.0493C28.1171 96.5682 27.8527 97.093 27.6012 97.6247C27.3498 98.1564 27.1115 98.694 26.8864 99.2376C26.6613 99.7807 26.4497 100.33 26.2516 100.883C26.0535 101.437 25.869 101.995 25.6983 102.558C25.5275 103.121 25.3707 103.687 25.2278 104.258C25.0849 104.829 24.956 105.402 24.8413 105.979C24.7265 106.556 24.626 107.136 24.5398 107.717C24.4534 108.299 24.3815 108.882 24.3238 109.468C24.2661 110.053 24.2229 110.64 24.194 111.227C24.1652 111.815 24.1508 112.402 24.1508 112.99C24.1508 113.578 24.1652 114.166 24.194 114.754C24.2229 115.342 24.2661 115.928 24.3238 116.513C24.3815 117.098 24.4534 117.682 24.5398 118.264C24.626 118.846 24.7265 119.425 24.8413 120.002C24.956 120.579 25.0849 121.152 25.2278 121.723C25.3707 122.293 25.5275 122.86 25.6983 123.423C25.869 123.986 26.0535 124.544 26.2516 125.098C26.4497 125.652 26.6613 126.2 26.8864 126.744C27.1115 127.287 27.3498 127.824 27.6012 128.356C27.8527 128.888 28.1171 129.413 28.3943 129.932C28.6716 130.45 28.9614 130.962 29.2638 131.466C29.5662 131.971 29.8807 132.468 30.2075 132.957C30.5343 133.446 30.8728 133.927 31.2232 134.399C31.5736 134.872 31.9353 135.335 32.3085 135.79C32.6816 136.244 33.0656 136.69 33.4606 137.125C33.8556 137.561 34.261 137.987 34.677 138.403C35.0928 138.819 35.5186 139.224 35.9544 139.619C36.3902 140.014 36.8355 140.398 37.2901 140.771C37.7448 141.144 38.2083 141.506 38.6807 141.856C39.1532 142.207 39.6339 142.545 40.1229 142.872C40.6119 143.199 41.1087 143.514 41.6132 143.816C42.1177 144.118 42.6293 144.408 43.148 144.686C43.6667 144.963 44.1919 145.227 44.7236 145.479C45.2553 145.73 45.7928 145.968 46.3362 146.194C46.8796 146.419 47.4282 146.63 47.982 146.828C48.5358 147.026 49.0941 147.211 49.6569 147.382C50.2197 147.552 50.7864 147.709 51.357 147.852C51.9275 147.995 52.5012 148.124 53.078 148.238C53.6549 148.353 54.2342 148.454 54.816 148.54C55.3978 148.626 55.9814 148.699 56.5667 148.756C57.1521 148.814 57.7384 148.857 58.3259 148.886C58.9133 148.914 59.5012 148.929 60.0893 148.929H117.591V112.99H96.0277Z" fill="white"/>
<path d="M117.591 148.929C145.379 148.929 167.906 126.403 167.906 98.6154C167.906 70.8276 145.379 48.3015 117.591 48.3015C89.8041 48.3015 67.2775 70.8276 67.2775 98.6154C67.2775 126.403 89.8041 148.929 117.591 148.929Z" fill="white"/>
<defs>
<linearGradient id="paint0_linear_55782_2820" x1="193.206" y1="112.703" x2="140.898" y2="79.307" gradientUnits="userSpaceOnUse">
<stop offset="0.12998" stop-color="#A033FF"/>
<stop offset="0.610381" stop-color="#0094FF"/>
<stop offset="1" stop-color="#FF4759"/>
</linearGradient>
<linearGradient id="paint1_linear_55782_2820" x1="88.5535" y1="60.3766" x2="28.1768" y2="181.13" gradientUnits="userSpaceOnUse">
<stop stop-color="#FFD600" stop-opacity="0"/>
<stop offset="0.563347" stop-color="#FFC700"/>
</linearGradient>
</defs>
</svg>
