<svg width="196" height="196" viewBox="0 0 196 196" fill="none" xmlns="http://www.w3.org/2000/svg">
<rect width="195.325" height="195.325" rx="64.5067" fill="white"/>
<rect width="195.325" height="195.325" rx="64.5067" fill="url(#paint0_linear_55782_2826)"/>
<rect width="195.325" height="195.325" rx="64.5067" fill="url(#paint1_linear_55782_2826)"/>
<rect width="195.325" height="195.325" rx="64.5067" fill="url(#paint2_linear_55782_2826)"/>
<path fill-rule="evenodd" clip-rule="evenodd" d="M32.3834 67.9907C27.7502 71.524 25.0312 77.0171 25.0312 82.8438V145.989C25.0312 158.369 35.0669 168.404 47.4466 168.404H147.653C160.033 168.404 170.068 158.369 170.068 145.989V82.8438C170.068 77.0171 167.349 71.524 162.716 67.9906L108.877 26.9321C102.187 21.8303 92.9123 21.8303 86.2224 26.9321L32.3834 67.9907ZM41.1464 81.4981V145.131C41.1464 149.258 44.4916 152.603 48.6182 152.603H146.481C150.608 152.603 153.953 149.258 153.953 145.131V81.4981L106.122 114.997C100.976 118.602 94.1239 118.602 88.9772 114.997L41.1464 81.4981Z" fill="white"/>
<defs>
<linearGradient id="paint0_linear_55782_2826" x1="195.325" y1="113.94" x2="142.443" y2="80.1772" gradientUnits="userSpaceOnUse">
<stop offset="0.12998" stop-color="#A033FF"/>
<stop offset="0.610381" stop-color="#0094FF"/>
<stop offset="1" stop-color="#1D90FF"/>
</linearGradient>
<linearGradient id="paint1_linear_55782_2826" x1="89.5242" y1="61.0392" x2="28.4849" y2="183.118" gradientUnits="userSpaceOnUse">
<stop stop-color="#FFD600" stop-opacity="0"/>
<stop offset="0.563347" stop-color="#FFC700"/>
</linearGradient>
<linearGradient id="paint2_linear_55782_2826" x1="105.801" y1="113.94" x2="174.979" y2="187.187" gradientUnits="userSpaceOnUse">
<stop offset="0.0297327" stop-color="#FF3B30" stop-opacity="0"/>
<stop offset="0.842824" stop-color="#E73B2D"/>
</linearGradient>
</defs>
</svg>
