<svg width="200" height="200" viewBox="0 0 200 200" fill="none" xmlns="http://www.w3.org/2000/svg">
<rect width="199.931" height="199.931" rx="66.0278" fill="white"/>
<rect width="199.931" height="199.931" rx="66.0278" fill="url(#paint0_linear_55782_2832)"/>
<rect width="199.931" height="199.931" rx="66.0278" fill="url(#paint1_linear_55782_2832)"/>
<rect width="199.931" height="199.931" rx="66.0278" fill="url(#paint2_linear_55782_2832)"/>
<path d="M33.5844 91.857C33.5844 79.5681 33.5844 73.4236 35.9759 68.7298C38.0796 64.6011 41.4364 61.2443 45.5652 59.1406C50.2589 56.749 56.4034 56.749 68.6923 56.749H97.2176C109.507 56.749 115.651 56.749 120.345 59.1406C124.474 61.2443 127.83 64.6011 129.934 68.7298C132.326 73.4236 132.326 79.5681 132.326 91.857V109.411C132.326 121.7 132.326 127.844 129.934 132.538C127.83 136.667 124.474 140.024 120.345 142.127C115.651 144.519 109.507 144.519 97.2176 144.519H68.6923C56.4034 144.519 50.2589 144.519 45.5652 142.127C41.4364 140.024 38.0796 136.667 35.9759 132.538C33.5844 127.844 33.5844 121.7 33.5844 109.411V91.857Z" fill="white"/>
<path d="M143.297 86.818C143.297 85.858 143.297 85.378 143.44 84.9518C143.567 84.5748 143.775 84.23 144.049 83.9413C144.358 83.6148 144.782 83.39 145.63 82.9404L157.838 76.4705C162.09 74.2167 164.216 73.0899 165.951 73.3168C167.465 73.5149 168.828 74.3351 169.712 75.5802C170.725 77.0066 170.725 79.4129 170.725 84.2256V117.042C170.725 121.855 170.725 124.261 169.712 125.688C168.828 126.933 167.465 127.753 165.951 127.951C164.216 128.178 162.09 127.051 157.838 124.798L145.63 118.328C144.782 117.878 144.358 117.653 144.049 117.327C143.775 117.038 143.567 116.693 143.44 116.316C143.297 115.89 143.297 115.41 143.297 114.45V86.818Z" fill="white"/>
<defs>
<linearGradient id="paint0_linear_55782_2832" x1="199.931" y1="116.627" x2="145.801" y2="82.0678" gradientUnits="userSpaceOnUse">
<stop offset="0.12998" stop-color="#A033FF"/>
<stop offset="0.610381" stop-color="#0094FF"/>
<stop offset="1" stop-color="#A84FF0"/>
</linearGradient>
<linearGradient id="paint1_linear_55782_2832" x1="91.6351" y1="62.4785" x2="29.1566" y2="187.435" gradientUnits="userSpaceOnUse">
<stop stop-color="#FFD600" stop-opacity="0"/>
<stop offset="0.563347" stop-color="#FFC700"/>
</linearGradient>
<linearGradient id="paint2_linear_55782_2832" x1="108.296" y1="116.627" x2="179.105" y2="191.601" gradientUnits="userSpaceOnUse">
<stop offset="0.0297327" stop-color="#FF3B30" stop-opacity="0"/>
<stop offset="0.842824" stop-color="#E73B2D"/>
</linearGradient>
</defs>
</svg>
